<?xml version="1.0" standalone="no"?>
<!DOCTYPE svg PUBLIC "-//W3C//DTD SVG 20010904//EN"
 "http://www.w3.org/TR/2001/REC-SVG-20010904/DTD/svg10.dtd">
<svg version="1.0" xmlns="http://www.w3.org/2000/svg"
 width="128.000000pt" height="128.000000pt" viewBox="0 0 128.000000 128.000000"
 preserveAspectRatio="xMidYMid meet">

<g transform="translate(0.000000,128.000000) scale(0.100000,-0.100000)"
fill="#000000" stroke="none">
<path d="M347 1029 l-237 -119 0 -55 0 -55 480 0 480 0 0 53 0 52 -243 121
-242 122 -238 -119z m663 -166 c0 -10 -90 -13 -425 -13 -335 0 -425 3 -425 13
0 7 96 60 213 118 l212 106 213 -106 c116 -58 212 -111 212 -118z"/>
<path d="M160 535 l0 -215 105 0 105 0 0 215 0 215 -105 0 -105 0 0 -215z
m160 -6 l0 -160 -52 3 -53 3 -3 158 -3 157 56 0 55 0 0 -161z"/>
<path d="M480 535 l0 -215 105 0 105 0 0 215 0 215 -105 0 -105 0 0 -215z
m160 -6 l0 -160 -52 3 -53 3 -3 158 -3 157 56 0 55 0 0 -161z"/>
<path d="M800 535 l0 -215 105 0 105 0 0 215 0 215 -105 0 -105 0 0 -215z
m160 -6 l0 -160 -52 3 -53 3 -3 158 -3 157 56 0 55 0 0 -161z"/>
<path d="M110 190 l0 -80 480 0 481 0 -3 78 -3 77 -477 3 -478 2 0 -80z m900
-5 l0 -25 -425 0 -425 0 0 25 0 25 425 0 425 0 0 -25z"/>
</g>
</svg>
