<svg xmlns="http://www.w3.org/2000/svg" width="512" height="512" viewBox="0 0 512 512" version="1.1">
  <path
    d="M 67.892 41.295 C 60.316 44.492, 57.991 46.289, 47.379 57.158 C 40.890 63.804, 37.244 68.520, 34.747 73.500 C 17.056 108.777, 19.333 160.172, 40.995 214.500 C 75.017 299.828, 148.848 385.316, 235 439.139 C 304.594 482.616, 373.928 498.921, 423.172 483.390 C 437.853 478.760, 444.459 474.772, 455.644 463.790 C 463.133 456.436, 466.666 452.098, 469.144 447.211 C 472.261 441.065, 472.499 439.913, 472.485 431.047 C 472.472 422.650, 472.150 420.898, 469.813 416.500 C 467.901 412.903, 454.713 399.114, 422.827 367.372 C 381.347 326.078, 378.147 323.125, 373 321.393 C 369.658 320.269, 364.708 319.550, 360.383 319.561 C 354.464 319.576, 352.217 320.099, 347.031 322.670 L 340.795 325.761 346.648 319.544 C 349.866 316.124, 341.925 324.004, 329 337.055 C 311 355.229, 304.619 361.062, 301.737 361.973 C 299.668 362.628, 294.001 363.132, 289.144 363.095 C 249.309 362.784, 190.672 318.764, 163.137 268.500 C 153.727 251.322, 148.963 236, 148.852 222.548 C 148.737 208.752, 148.312 209.387, 175.948 182 C 189.546 168.525, 197.422 160.587, 193.452 164.360 L 186.232 171.219 189.327 164.976 C 191.901 159.782, 192.424 157.538, 192.439 151.617 C 192.450 147.292, 191.731 142.342, 190.607 139 C 188.875 133.853, 185.922 130.653, 144.628 89.173 C 112.221 56.619, 99.172 44.155, 95.500 42.245 C 88.143 38.420, 75.719 37.993, 67.892 41.295"
    stroke="none" fill="#E85D56" fill-rule="evenodd"/>
  <path
    d="M 84.371 24.779 C 78.950 26.715, 72.946 31.324, 64.157 40.297 L 58.814 45.751 65.126 42.626 C 70.873 39.780, 72.291 39.501, 80.969 39.515 C 89.349 39.528, 91.104 39.851, 95.500 42.187 C 99.097 44.099, 112.886 57.287, 144.628 89.173 C 185.922 130.653, 188.875 133.853, 190.607 139 C 191.731 142.342, 192.450 147.292, 192.439 151.617 C 192.424 157.540, 191.901 159.782, 189.324 164.982 L 186.227 171.230 194.552 162.949 C 205.189 152.367, 208.337 145.995, 208.360 135 C 208.391 120.716, 208.863 121.324, 159.193 71.722 C 123.667 36.244, 114.565 27.673, 110.500 25.867 C 103.565 22.788, 91.369 22.280, 84.371 24.779 M 158.807 198.780 C 149.963 207.781, 148.753 210.669, 148.852 222.548 C 149.321 279.166, 232.586 362.653, 289.021 363.094 C 301.853 363.194, 304.486 362.086, 313.651 352.733 C 317.968 348.328, 320.600 345.043, 319.500 345.431 C 295.484 353.920, 252.495 335.422, 216.948 301.303 C 181.766 267.534, 159.582 222.783, 165.469 197.455 C 166.229 194.189, 166.747 191.414, 166.622 191.288 C 166.496 191.163, 162.980 194.534, 158.807 198.780 M 369 304.339 C 359.808 306.941, 357.542 308.483, 347.148 319.207 L 340.795 325.761 347.031 322.670 C 352.217 320.099, 354.464 319.576, 360.383 319.561 C 364.708 319.550, 369.658 320.269, 373 321.393 C 378.147 323.125, 381.347 326.078, 422.827 367.372 C 454.713 399.114, 467.901 412.903, 469.813 416.500 C 472.152 420.902, 472.472 422.647, 472.485 431.083 C 472.499 439.931, 472.250 441.160, 469.247 447.083 L 465.994 453.500 474.904 444.399 C 486.497 432.557, 488.500 428.447, 488.500 416.500 C 488.500 400.601, 490.604 403.390, 441.119 353.703 C 403.437 315.867, 396.683 309.512, 391.500 307.016 C 384.324 303.561, 375.470 302.507, 369 304.339"
    stroke="none" fill="#e4404d" fill-rule="evenodd"/>
</svg>
