<svg xmlns="http://www.w3.org/2000/svg" width="512" height="512" viewBox="0 0 512 512" version="1.1">
  <path
    d="M 65.550 64.844 C 66.073 65.309, 109.137 99.314, 161.250 140.412 L 256 215.136 350.750 140.412 C 402.863 99.314, 445.928 65.309, 446.450 64.844 C 446.973 64.380, 361.270 64, 256 64 C 150.730 64, 65.027 64.380, 65.550 64.844 M 64 299 L 64 448 255.559 448 C 360.916 448, 446.906 447.663, 446.648 447.250 C 444.176 443.307, 67.149 150, 64.552 150 C 64.248 150, 64 217.050, 64 299"
    stroke="none" fill="#eceff1" fill-rule="evenodd"/>
  <path
    d="M 65.550 64.844 C 66.073 65.309, 109.137 99.314, 161.250 140.412 L 256 215.136 350.750 140.412 C 402.863 99.314, 445.928 65.309, 446.450 64.844 C 446.973 64.380, 361.270 64, 256 64 C 150.730 64, 65.027 64.380, 65.550 64.844 M 64 299 L 64 448 255.559 448 C 360.916 448, 446.906 447.663, 446.648 447.250 C 444.176 443.307, 67.149 150, 64.552 150 C 64.248 150, 64 217.050, 64 299"
    stroke="none" fill="#eceff1" fill-rule="evenodd"/>
  <path
    d="M 352.138 222.357 C 299.689 262.701, 256.806 296.025, 256.843 296.412 C 256.880 296.798, 299.793 330.969, 352.205 372.348 L 447.500 447.582 447.756 372.713 C 447.897 331.534, 447.897 264.354, 447.756 223.424 L 447.500 149.005 352.138 222.357"
    stroke="none" fill="#cfd8dc" fill-rule="evenodd"/>
  <path
    d="M 33.798 65.931 C 18.486 70.827, 6.547 82.845, 1.942 98 C 0.006 104.369, -0.028 107.601, 0.233 258 L 0.500 411.500 2.819 417.243 C 7.712 429.358, 18.810 440.419, 30.808 445.139 C 35.453 446.966, 39.029 447.452, 50.247 447.785 L 63.993 448.192 64.247 298.598 L 64.500 149.005 160 222.487 C 212.525 262.903, 255.725 295.970, 256 295.970 C 256.275 295.970, 299.475 262.903, 352 222.487 L 447.500 149.005 447.753 298.503 L 448.007 448 459.898 448 C 468.893 448, 473.337 447.522, 478.145 446.036 C 492.722 441.531, 505.239 429.391, 509.521 415.605 C 510.393 412.797, 511.533 409.719, 512.053 408.764 C 513.143 406.766, 513.404 101.263, 512.315 102.351 C 511.939 102.728, 510.869 100.574, 509.938 97.566 C 505.342 82.710, 493.164 70.606, 478.145 65.964 C 473.342 64.480, 468.893 64, 459.938 64 L 448.086 64 352.464 139.500 C 299.871 181.025, 256.463 215, 256 215 C 255.537 215, 212.129 181.025, 159.536 139.500 L 63.914 64 51.707 64.054 C 42.767 64.093, 37.974 64.596, 33.798 65.931 M 0.487 256 C 0.487 340.425, 0.606 374.963, 0.750 332.750 C 0.894 290.538, 0.894 221.463, 0.750 179.250 C 0.606 137.038, 0.487 171.575, 0.487 256"
    stroke="none" fill="#E85D56" fill-rule="evenodd"/>
</svg>
